<svg width="650" height="680" viewBox="0 0 650 680" fill="none" xmlns="http://www.w3.org/2000/svg">
<rect x="2" y="485.397" width="645.481" height="192.902" fill="url(#paint0_radial)"/>
<rect x="2" y="485.397" width="645.481" height="192.902" fill="url(#paint1_radial)"/>
<rect x="2" y="485.397" width="645.481" height="192.902" fill="url(#paint2_radial)"/>
<path d="M317.364 2C488.81 1.99998 619.115 343.334 547.543 494.6C475.97 645.865 177.949 653.568 100.022 494.6C22.0953 335.631 145.919 2.00002 317.364 2Z" fill="#F3F6F7"/>
<mask id="mask0" mask-type="alpha" maskUnits="userSpaceOnUse" x="76" y="2" width="492" height="609">
<path d="M317.364 2C488.81 1.99998 619.115 343.334 547.543 494.6C475.97 645.865 177.949 653.568 100.022 494.6C22.0953 335.631 145.919 2.00002 317.364 2Z" fill="#F3F6F7"/>
</mask>
<g mask="url(#mask0)">
<path d="M80.7588 257.681L143.823 326.453L208.885 293.636L366.117 384.951L429.182 320.745L468.846 356.701L517.072 293.636L552.742 312.47L605.533 257.681" stroke="#EDEEEE" stroke-width="29"/>
<path d="M80.7578 265.386L143.822 334.157L208.884 301.341L366.116 392.656L429.181 328.45L468.845 364.405L517.071 301.341L552.741 320.175L605.532 265.386" stroke="#E7E8E8" stroke-width="29"/>
<path d="M80.7578 265.386L143.822 334.157L208.884 301.341L366.116 392.656L429.181 328.45L468.845 364.405L517.071 301.341L552.741 320.175L605.532 265.386" stroke="url(#paint3_linear)" stroke-width="29"/>
</g>
<path d="M315.376 8.27783C475.671 8.27781 597.5 346.093 530.583 495.799C463.666 645.505 185.028 653.129 112.169 495.799C39.3111 338.47 155.081 8.27785 315.376 8.27783Z" fill="url(#paint4_linear)"/>
<path d="M315.376 8.27783C475.671 8.27781 597.5 346.093 530.583 495.799C463.666 645.505 185.028 653.129 112.169 495.799C39.3111 338.47 155.081 8.27785 315.376 8.27783Z" fill="url(#paint5_radial)"/>
<rect x="191" y="185" width="266" height="244" rx="19" fill="#F3F6F6"/>
<rect x="191" y="185" width="266" height="244" rx="19" fill="url(#paint6_linear)"/>
<rect x="191" y="185" width="266" height="244" rx="19" fill="url(#paint7_linear)"/>
<rect x="199" y="194" width="250" height="225" rx="19" fill="#BDEFC2"/>
<rect x="199" y="194" width="250" height="225" rx="19" fill="url(#paint8_linear)"/>
<rect x="199" y="194" width="250" height="225" rx="19" fill="url(#paint9_linear)"/>
<defs>
<radialGradient id="paint0_radial" cx="0" cy="0" r="1" gradientUnits="userSpaceOnUse" gradientTransform="translate(324.74 581.849) rotate(90.1942) scale(84.1812 281.683)">
<stop stop-opacity="0.12"/>
<stop offset="1" stop-opacity="0"/>
</radialGradient>
<radialGradient id="paint1_radial" cx="0" cy="0" r="1" gradientUnits="userSpaceOnUse" gradientTransform="translate(324.74 581.849) rotate(90.3165) scale(51.6507 172.831)">
<stop stop-opacity="0.25"/>
<stop offset="1" stop-opacity="0"/>
</radialGradient>
<radialGradient id="paint2_radial" cx="0" cy="0" r="1" gradientUnits="userSpaceOnUse" gradientTransform="translate(325 600) rotate(90) scale(46.5 272.69)">
<stop stop-opacity="0.11"/>
<stop offset="0.682292" stop-opacity="0"/>
</radialGradient>
<linearGradient id="paint3_linear" x1="549.031" y1="265.101" x2="86.465" y2="257.967" gradientUnits="userSpaceOnUse">
<stop stop-color="#FEFEFE"/>
<stop offset="0.526042" stop-color="white" stop-opacity="0"/>
<stop offset="1" stop-color="#FEFEFE"/>
</linearGradient>
<linearGradient id="paint4_linear" x1="372.395" y1="18.2419" x2="284.598" y2="162.202" gradientUnits="userSpaceOnUse">
<stop stop-color="white"/>
<stop offset="1" stop-color="white" stop-opacity="0"/>
</linearGradient>
<radialGradient id="paint5_radial" cx="0" cy="0" r="1" gradientUnits="userSpaceOnUse" gradientTransform="translate(319.318 610.955) rotate(-90) scale(217.443 341.06)">
<stop offset="0.00304394" stop-color="#617272" stop-opacity="0.22"/>
<stop offset="1" stop-color="white" stop-opacity="0"/>
</radialGradient>
<linearGradient id="paint6_linear" x1="377.727" y1="198.125" x2="408.602" y2="595.942" gradientUnits="userSpaceOnUse">
<stop stop-color="#DFDFDF" stop-opacity="0.58"/>
<stop offset="1" stop-color="white" stop-opacity="0"/>
</linearGradient>
<linearGradient id="paint7_linear" x1="304.337" y1="429" x2="277.309" y2="365.818" gradientUnits="userSpaceOnUse">
<stop stop-color="white"/>
<stop offset="1" stop-color="white" stop-opacity="0"/>
</linearGradient>
<linearGradient id="paint8_linear" x1="374.495" y1="206.103" x2="378.751" y2="288.295" gradientUnits="userSpaceOnUse">
<stop stop-opacity="0.1"/>
<stop offset="1" stop-opacity="0"/>
</linearGradient>
<linearGradient id="paint9_linear" x1="316.093" y1="418.805" x2="305.52" y2="350.076" gradientUnits="userSpaceOnUse">
<stop stop-color="white" stop-opacity="0.26"/>
<stop offset="1" stop-color="white" stop-opacity="0"/>
</linearGradient>
</defs>
</svg>
